<svg id="Layer_1" data-name="Layer 1" xmlns="http://www.w3.org/2000/svg" viewBox="0 0 75.32 74.12"><defs><style>.cls-1{fill:#fff;fill-rule:evenodd;}</style></defs><g id="Layer_2" data-name="Layer 2"><g id="Layer_1-2" data-name="Layer 1-2"><path class="cls-1" d="M28.3,35.34c0-.51-.05-1-.05-1.55,0-12.32,8.68-20.91,20.91-20.91a21,21,0,0,1,16.42,7.65l9.71-9C69.13,4.11,59.7,0,48.41,0,32.63,0,20,8.48,15.12,21.47V1.12H.9C3.39,10,7.78,17.28,14.34,22.64l.29.23h0A102.91,102.91,0,0,1,28.3,35.34Z"/><path class="cls-1" d="M0,66.45H15.12V46.1c3.69,9.9,11.88,17.1,22.4,20-.17-.4-.35-.8-.53-1.19l1.41-.72a1.17,1.17,0,0,0,.52-1.58h0l-.54-1.06a1.19,1.19,0,0,0-1.59-.51l-1.39.71c-.41-.76-.85-1.52-1.3-2.27l2-1a1.19,1.19,0,0,0,.52-1.59l-.54-1a1.19,1.19,0,0,0-1.59-.52L32.2,56.57c-.52-.76-1-1.51-1.6-2.26L33.18,53a1.19,1.19,0,0,0,.52-1.59l-.54-1a1.18,1.18,0,0,0-1.59-.51h0l-3.2,1.56c-.58-.7-1.17-1.4-1.78-2.09l2.91-1.49a1.2,1.2,0,0,0,.5-1.59l-.54-1a1.18,1.18,0,0,0-1.59-.51h0L24.1,46.6c-.57-.6-1.16-1.2-1.76-1.8L25,43.44a1.39,1.39,0,0,0,.6-1.85L25,40.37a1.39,1.39,0,0,0-1.85-.6l-4,2c-.62-.56-1.25-1.13-1.9-1.68L19.52,39a1.39,1.39,0,0,0,.6-1.85l-.62-1.22a1.39,1.39,0,0,0-1.85-.6l-3.83,2h-.74c-.29-.24-.59-.47-.89-.7L13,35.5l1.86-1H15a1.36,1.36,0,0,0,.32-1.66L15,32.2h0l-.3-.59H13.29l-.15.07L9.21,32.79c-.48-.54-1-1.09-1.4-1.63l1.92-1a1.37,1.37,0,0,0,.6-1.84L9.7,27.1a1.37,1.37,0,0,0-1.84-.6l-2.6,1.33c-.4-.56-.78-1.13-1.15-1.7l1.2-.61a1.37,1.37,0,0,0,.6-1.84l-.63-1.23a1.39,1.39,0,0,0-1.85-.6L2,22.57c-.34-.65-.65-1.3-.95-1.95l.77-.39a1.39,1.39,0,0,0,.6-1.85l-.63-1.22A1.39,1.39,0,0,0,0,16.55Z"/><path class="cls-1" d="M48.32,67.57c11.38,0,20.81-4.1,27-11.66l-9.71-9a20.8,20.8,0,0,1-16.42,7.74,22.39,22.39,0,0,1-9.8-2.13c.43,1.08.83,2.19,1.19,3.31A46.5,46.5,0,0,1,42,74.12a64.4,64.4,0,0,0,3.37-6.69A26.05,26.05,0,0,0,48.32,67.57Z"/></g></g></svg>