<svg id="Layer_1" data-name="Layer 1" xmlns="http://www.w3.org/2000/svg" viewBox="0 0 419.38 80.01"><defs><style>.cls-1{font-size:71.02px;font-family:Roboto-Bold, Roboto;font-weight:700;}.cls-1,.cls-3{fill:#252f47;}.cls-2{letter-spacing:-0.01em;}.cls-3{fill-rule:evenodd;}</style></defs><text class="cls-1" transform="translate(102.3 60.76)">i2i-Cryp<tspan class="cls-2" x="253.96" y="0">t</tspan><tspan x="276.92" y="0">o</tspan></text><path class="cls-3" d="M334.56,547.18c0-.52-.05-1-.05-1.56,0-12.32,8.68-20.91,20.91-20.91a21,21,0,0,1,16.42,7.66l9.71-9c-6.16-7.47-15.59-11.58-26.88-11.58-15.78,0-28.42,8.48-33.29,21.48V513H307.16c2.49,8.91,6.88,16.16,13.44,21.53l.29.22h0A102.08,102.08,0,0,1,334.56,547.18Z" transform="translate(-306.26 -510)"/><path class="cls-3" d="M306.26,578.28h15.12V557.94a32.73,32.73,0,0,0,22.4,20c-.17-.4-.35-.79-.53-1.19l1.41-.72a1.19,1.19,0,0,0,.52-1.59l-.54-1.05a1.19,1.19,0,0,0-1.59-.52l-1.39.71c-.42-.76-.85-1.51-1.3-2.26l2-1a1.18,1.18,0,0,0,.51-1.59l-.53-1a1.18,1.18,0,0,0-1.59-.51l-2.29,1.17c-.52-.76-1.05-1.52-1.61-2.27l2.59-1.32a1.19,1.19,0,0,0,.52-1.59l-.54-1a1.18,1.18,0,0,0-1.59-.51l-3.19,1.63c-.58-.71-1.17-1.41-1.78-2.1l2.91-1.48a1.19,1.19,0,0,0,.52-1.59l-.54-1.06a1.19,1.19,0,0,0-1.59-.51l-3.79,1.93c-.57-.6-1.16-1.2-1.76-1.8l2.66-1.36a1.37,1.37,0,0,0,.6-1.84l-.63-1.23a1.37,1.37,0,0,0-1.84-.6l-4,2c-.62-.57-1.26-1.13-1.9-1.69l2.26-1.16a1.37,1.37,0,0,0,.6-1.84l-.62-1.23a1.39,1.39,0,0,0-1.85-.6l-3.83,2h-.29l0,0h-.45c-.29-.24-.59-.47-.89-.7l.82-.42,1.86-1,0,0h.07l0,0h0l0,0h0l0,0h.07a1.38,1.38,0,0,0,.32-1.66l-.32-.63h0l-.3-.59,0,0h0v0h0v0h0v0h0v0h0v0h0v0h0v0h0v0h-.05v0h-.18l0,0h-1.23l-.15.07-3.76,1.92c-.48-.55-1-1.09-1.41-1.64l1.93-1a1.39,1.39,0,0,0,.6-1.85l-.63-1.22a1.36,1.36,0,0,0-1.84-.6l-2.6,1.32c-.4-.56-.78-1.13-1.15-1.69l1.2-.61a1.39,1.39,0,0,0,.6-1.85l-.63-1.22a1.37,1.37,0,0,0-1.85-.6l-1.4.71c-.34-.65-.65-1.29-1-1.94l.77-.4a1.37,1.37,0,0,0,.6-1.84l-.63-1.23a1.38,1.38,0,0,0-1.82-.61Z" transform="translate(-306.26 -510)"/><path class="cls-3" d="M354.58,579.4c11.38,0,20.81-4.1,27-11.66l-9.71-9a20.81,20.81,0,0,1-16.42,7.74,22.51,22.51,0,0,1-9.81-2.13c.44,1.09.84,2.19,1.2,3.31,1.83,6.39,1.95,11.74,1.4,18.29a61.51,61.51,0,0,0,3.36-6.69C352.56,579.37,353.56,579.4,354.58,579.4Z" transform="translate(-306.26 -510)"/></svg>