<svg id="Layer_1" data-name="Layer 1" xmlns="http://www.w3.org/2000/svg" viewBox="0 0 419.38 80"><defs><style>.cls-1,.cls-2,.cls-3{isolation:isolate;}.cls-2,.cls-3{font-size:71.02px;font-family:Roboto-Bold, Roboto;font-weight:700;}.cls-2,.cls-3,.cls-4{fill:#fff;}.cls-3{letter-spacing:-0.01em;}.cls-4{fill-rule:evenodd;}</style></defs><g class="cls-1"><text class="cls-2" transform="translate(102.3 60.76)">i2i-Cryp</text><text class="cls-3" transform="translate(356.26 60.76)">t</text><text class="cls-2" transform="translate(379.22 60.76)">o</text></g><path class="cls-4" d="M28.3,37.18c0-.52-.05-1-.05-1.56,0-12.32,8.68-20.91,20.91-20.91a21,21,0,0,1,16.42,7.66l9.71-9C69.13,5.9,59.7,1.79,48.41,1.79,32.63,1.79,20,10.27,15.12,23.27V3H.9c2.49,8.91,6.88,16.16,13.44,21.53l.29.22h0A101.93,101.93,0,0,1,28.3,37.18Z" transform="translate(0 0)"/><path class="cls-4" d="M0,68.28H15.12V47.94a32.76,32.76,0,0,0,22.4,20c-.17-.4-.35-.79-.53-1.19L38.4,66a1.19,1.19,0,0,0,.52-1.59l-.54-1a1.19,1.19,0,0,0-1.59-.52l-1.39.71c-.42-.76-.85-1.51-1.3-2.26l2-1a1.18,1.18,0,0,0,.51-1.59h0l-.53-1a1.18,1.18,0,0,0-1.59-.51h0L32.2,58.39c-.52-.76-1.05-1.52-1.61-2.27l2.59-1.32a1.19,1.19,0,0,0,.52-1.59l-.54-1a1.18,1.18,0,0,0-1.59-.51h0l-3.19,1.63c-.58-.71-1.17-1.41-1.78-2.1l2.91-1.48A1.19,1.19,0,0,0,30,48.16l-.54-1.06a1.19,1.19,0,0,0-1.59-.51l-3.79,1.93c-.57-.6-1.16-1.2-1.76-1.8L25,45.36a1.37,1.37,0,0,0,.6-1.84L25,42.29a1.37,1.37,0,0,0-1.84-.6l-4,2c-.62-.57-1.26-1.13-1.9-1.69l2.26-1.16A1.37,1.37,0,0,0,20.1,39l-.62-1.23a1.39,1.39,0,0,0-1.85-.6l-3.83,2h-.74c-.29-.24-.59-.47-.89-.7l.82-.42,1.86-1H15a1.39,1.39,0,0,0,.32-1.66L15,34.76h0l-.3-.59H13.23l-.15.07L9.32,36.16c-.48-.55-1-1.09-1.41-1.64l1.93-1a1.39,1.39,0,0,0,.6-1.85l-.63-1.22A1.36,1.36,0,0,0,8,29.84H8l-2.6,1.32C5,30.61,4.59,30,4.22,29.48l1.2-.61A1.39,1.39,0,0,0,6,27L5.39,25.8a1.36,1.36,0,0,0-1.84-.6h0l-1.4.71c-.34-.65-.65-1.29-1-1.94l.77-.4a1.37,1.37,0,0,0,.6-1.84L1.88,20.5a1.38,1.38,0,0,0-1.82-.61Z" transform="translate(0 0)"/><path class="cls-4" d="M48.32,69.4c11.38,0,20.81-4.1,27-11.66l-9.71-9a20.8,20.8,0,0,1-16.42,7.74,22.47,22.47,0,0,1-9.81-2.13c.44,1.09.84,2.19,1.2,3.31,1.83,6.39,2,11.74,1.4,18.29a61.49,61.49,0,0,0,3.36-6.69A26.34,26.34,0,0,0,48.32,69.4Z" transform="translate(0 0)"/></svg>